<?xml version="1.0" encoding="UTF-8"?>
<svg id="Layer_2" data-name="Layer 2" xmlns="http://www.w3.org/2000/svg" viewBox="0 0 1140.34 1137.18">
  <defs>
    <style>
      .cls-1 {
        stroke-width: 0px;
      }
    </style>
  </defs>
  <g id="Layer_1-2" data-name="Layer 1">
    <path class="cls-1" d="M850.06,143.36c11.41,21.57,24.69,39.19,45.9,49.9-.5-1.07-.88-2.2-1.5-3.19-11.83-18.88-19.78-39.37-23.35-61.25-1.78-10.92-1.55-22.25-1.4-33.38.31-22.04,2.41-43.91,8.63-65.21,3.72-12.73,9.73-24.28,16.08-30.24,1.11,1.64,2.26,3.15,3.22,4.76,16.95,28.3,33.87,56.62,50.86,84.89.89,1.48,2.12,3.32,3.57,3.79,3.47,1.12,5.57-1.38,5.01-5.54-2.49-18.55.4-36.2,9.17-52.75,2.47-4.65,5.61-8.95,9.12-14.47,1.22,2.87,2.02,4.58,2.68,6.34,7.05,18.7,14.15,37.39,21.05,56.15,1.21,3.29,3.1,5.09,6.36,6.26,8.78,3.15,17.44,6.62,26.14,9.97,16.01,6.17,29.28,16.07,38.65,30.42,5.75,8.81,13.1,13.52,23.5,14.78,10.07,1.22,20.02,3.45,30,5.37,11.39,2.19,17.47,9.68,16.49,21.28-1.83,21.58-4.19,43.1-6.12,64.67-.42,4.67-3.26,7.13-6.68,9.27-13.28,8.29-26.47,16.75-39.98,24.66-30.75,18.01-45.53,44.5-42.6,80.15,5.46,66.4,11.02,132.79,17,199.15,2.62,29.02-2.86,55.77-17.62,81.03-21.77,37.25-43.06,74.79-64.08,112.47-26.09,46.75-32.08,96.33-19.86,148.36,10.13,43.12,19.91,86.33,29.86,129.49,4.77,20.68,20.31,33.09,41.53,33.52,8.63.18,17.46-.16,25.85,1.5,18.78,3.71,31.97,17.71,34.02,34.71,1.12,9.34-1.38,17.89-6.78,25.49-4.44,6.24-9.09,12.36-13.99,18.23-1.27,1.52-3.85,2.73-5.83,2.75-30.16.17-60.37,1.03-90.48-.15-31.59-1.24-55.43-16.67-68.4-45.81-29.33-65.89-57.74-132.2-86.82-198.2-15.6-35.4-37-66.71-67.87-90.72-23.14-18-48.87-30.39-78.26-34.28-.94-.13-1.92-.02-3.38.86,1.37.91,2.7,1.89,4.11,2.73,38.06,22.39,69.43,51.61,91.4,90.25,14.48,25.47,23.51,52.77,23.41,82.23-.15,43.96-18.93,78.2-56.12,102.06-2.31,1.48-4.65,2.91-6.98,4.36.11.42.21.84.32,1.27,6.71.26,13.42.76,20.13.73,16.82-.08,33.67,0,50.47-.71,34.03-1.45,51.78,32.74,39.75,60.54-3.3,7.63-7.36,14.94-11.35,22.25-.7,1.28-2.67,2.29-4.21,2.6-2.25.44-4.64.13-6.98.13-108.66,0-217.32,0-325.98,0-28.25,0-54.29-7.17-77.84-23.13-2.23-1.51-5.99-1.69-8.85-1.23-27.53,4.37-55.18,7.31-83.08,6.38-39.94-1.33-78.41-8.75-113.53-29.04-40.72-23.53-67.73-58.39-83.87-102.09-10.91-29.55-15.18-60.25-15.7-91.63-1.12-67.62,13.73-132.31,36.89-195.23,13.01-35.36,26.13-70.59,34-107.53,8.29-38.91,13.38-78.18,11.32-118.05-1.43-27.78-5.79-55-19.38-79.92-14.09-25.83-36.05-39.76-64.97-43.41-18.39-2.32-36.57-.76-54.65,2.61-27.51,5.12-50.07-14.63-47.91-42.03,1.26-15.95,15.01-31.61,32.03-34.85,34.86-6.63,69.86-8.13,104.52,1.22,53.28,14.37,88.72,48.72,109.38,99.16,13.83,33.77,19.12,69.22,19.78,105.45,1.45,79.84-16.13,156.01-45.15,229.87-17.44,44.4-30.12,90.01-35.35,137.49-4.05,36.72-3.57,73.22,8.63,108.66,7.07,20.55,18.31,38.32,35.37,52.3,10.56,8.65,23.22,11.39,35.91,13.93,20.43,4.09,40.74,4.12,60.34-4.28,2.58-1.11,5.05-2.56,7.41-4.11,6.7-4.41,9.81-9.63,8.69-18.67-5.61-45.51-2.27-90.84,5.07-135.9,10.46-64.23,30.19-125.53,59.5-183.67,47.24-93.7,114.67-169.54,201.96-227.76,29.17-19.46,59.74-36.45,91.69-50.82,36.32-16.33,58.61-43.57,67.48-82.44,9.33-40.9,22.58-80.49,42.78-117.48,10.42-19.08,22.62-36.92,37.29-53.03,1.1-1.2,1.73-2.82,2.59-4.25Z"/>
  </g>
</svg>


